<svg width="1849" height="758" viewBox="0 0 1849 758" fill="none" xmlns="http://www.w3.org/2000/svg">
<path d="M1682.12 644.456V571.71H1664.51V644.456H1334.69V529.545H1347.51V514H1319V660H1682.14V644.456H1682.12Z" fill="#7445FC"/>
<path d="M1664.88 552.467H1682.49V567.281H1664.88V552.467Z" fill="#7445FC"/>
<path d="M1423.63 552.467H1441.24V567.281H1423.63V552.467Z" fill="#7445FC"/>
<path d="M1682.12 644.456V571.71H1664.51V644.456H1334.69V529.545H1347.51V514H1319V660H1682.14V644.456H1682.12Z" fill="#7445FC"/>
<path d="M1355.31 514.001V514.009H1355.15V619.063L1416.15 619.064V600.753H1375.16V529.547H1753.31V644.457H1689.78V659.998H1769V514.001H1355.31Z" fill="#7445FC"/>
<path d="M1440.78 571.711V619.642H1423.4V571.711H1440.78Z" fill="#7445FC"/>
<path d="M1487.34 582.059H1521.85C1521.85 585.62 1521.7 588.858 1521.4 591.767C1521.1 594.676 1520.51 597.379 1519.63 599.873C1518.39 603.376 1516.7 606.476 1514.57 609.179C1512.44 611.88 1509.94 614.135 1507.08 615.948C1504.21 617.758 1501.06 619.139 1497.63 620.086C1494.2 621.037 1490.59 621.514 1486.81 621.514C1481.61 621.514 1476.86 620.65 1472.57 618.928C1468.29 617.21 1464.6 614.789 1461.53 611.673C1458.46 608.557 1456.06 604.812 1454.35 600.45C1452.63 596.088 1451.78 591.266 1451.78 585.978C1451.78 580.757 1452.62 575.958 1454.3 571.596C1455.99 567.234 1458.38 563.508 1461.49 560.42C1464.59 557.336 1468.33 554.929 1472.7 553.206C1477.08 551.484 1481.96 550.625 1487.34 550.625C1494.32 550.625 1500.44 552.14 1505.7 555.166C1510.96 558.196 1515.13 562.886 1518.21 569.235L1501.71 576.096C1500.17 572.414 1498.18 569.77 1495.72 568.169C1493.27 566.566 1490.48 565.766 1487.34 565.766C1484.74 565.766 1482.37 566.256 1480.25 567.236C1478.12 568.215 1476.3 569.61 1474.79 571.42C1473.28 573.234 1472.1 575.413 1471.24 577.965C1470.39 580.517 1469.96 583.368 1469.96 586.515C1469.96 589.366 1470.33 592.006 1471.07 594.442C1471.81 596.874 1472.91 598.983 1474.39 600.764C1475.87 602.544 1477.7 603.926 1479.89 604.906C1482.08 605.885 1484.62 606.376 1487.52 606.376C1489.23 606.376 1490.89 606.184 1492.49 605.795C1494.08 605.413 1495.52 604.786 1496.79 603.927C1498.06 603.068 1499.11 601.951 1499.94 600.586C1500.76 599.22 1501.33 597.56 1501.62 595.602H1487.34L1487.34 582.059Z" fill="#7445FC"/>
<path d="M1550.23 578.407H1575.33V552.496H1592.71V619.642H1575.33V591.946H1550.23V619.642H1532.84V552.496H1550.23V578.407Z" fill="#7445FC"/>
<path d="M1632.09 567.276V619.642H1614.71V567.276H1600.43V552.496H1646.37V567.276H1632.09Z" fill="#7445FC"/>
<path d="M1725.43 567.276V619.642H1708.05V567.276H1693.77V552.496H1739.71V567.276H1725.43Z" fill="#7445FC"/>
<path d="M1194.04 644.135C1197.01 645.079 1200.44 645.551 1204.35 645.551C1212.16 645.551 1216.06 640.033 1216.06 628.998C1216.06 619.981 1212.7 615.473 1205.96 615.473C1201.6 615.473 1197.62 616.352 1194.04 618.109V644.135ZM1181.1 586.176H1194.04V608.637C1197.92 606.033 1202.23 604.73 1206.98 604.73C1221.57 604.73 1228.86 612.934 1228.86 629.34C1228.86 647.113 1220.51 656 1203.81 656C1196.78 656 1189.21 655.3 1181.1 653.9V586.176ZM1232.52 604.73H1246.24L1259.18 641.645L1271.83 604.73H1285.3L1264.01 657.514C1260.24 666.824 1254.2 673.448 1245.9 677.387L1239.65 668.549C1245.38 666.042 1249.54 661.957 1252.15 656.293L1232.52 604.73Z" fill="#7445FC"/>
<path fill-rule="evenodd" clip-rule="evenodd" d="M321.035 111.929C319.16 110.054 316.616 109 313.964 109H98C92.4771 109 88 113.477 88 119V504.474C88 509.997 92.4772 514.474 98 514.474H399C404.523 514.474 409 509.997 409 504.474V204.036C409 201.384 407.946 198.84 406.071 196.965L321.035 111.929Z" fill="white"/>
<path d="M406.071 196.965L395.464 207.571L406.071 196.965ZM321.035 111.929L310.429 122.536L321.035 111.929ZM313.964 94H98V124H313.964V94ZM73 119V504.474H103V119H73ZM98 529.474H399V499.474H98V529.474ZM424 504.474V204.036H394V504.474H424ZM416.678 186.358L331.642 101.322L310.429 122.536L395.464 207.571L416.678 186.358ZM424 204.036C424 197.405 421.366 191.047 416.678 186.358L395.464 207.571C394.527 206.634 394 205.362 394 204.036H424ZM399 529.474C412.807 529.474 424 518.281 424 504.474H394C394 501.712 396.239 499.474 399 499.474V529.474ZM73 504.474C73 518.281 84.1929 529.474 98 529.474V499.474C100.761 499.474 103 501.712 103 504.474H73ZM98 94C84.1929 94 73 105.193 73 119H103C103 121.761 100.761 124 98 124V94ZM313.964 124C312.638 124 311.366 123.473 310.429 122.536L331.642 101.322C326.953 96.6339 320.595 94 313.964 94V124Z" fill="#00519E"/>
<path d="M320.719 113.517L401.364 197.042C401.977 197.677 401.527 198.736 400.644 198.736L320 198.736C319.448 198.736 319 198.289 319 197.736L319 114.212C319 113.312 320.095 112.87 320.719 113.517Z" stroke="#00519E" stroke-width="20"/>
<path d="M582.312 209.264V358.385C582.312 398.619 554.725 418.736 499.549 418.736V385.045C528.846 385.045 543.494 376.158 543.494 358.385V209.264H582.312ZM647.791 418.736H607.947L696.863 209.264H738.611L829.432 418.736H787.684L763.807 361.607H694.227L707.557 327.916H749.744L716.785 249.254L647.791 418.736ZM851.404 409.947V374.791C872.4 382.604 896.131 386.51 922.596 386.51C954.725 386.51 970.789 375.768 970.789 354.283C970.789 338.658 960.926 330.846 941.199 330.846H908.387C865.516 330.846 844.08 311.314 844.08 272.252C844.08 229.283 874.598 207.799 935.633 207.799C959.07 207.799 981.287 211.217 1002.28 218.053V253.209C981.287 245.396 959.07 241.49 935.633 241.49C900.477 241.49 882.898 251.744 882.898 272.252C882.898 287.877 891.395 295.689 908.387 295.689H941.199C986.805 295.689 1009.61 315.221 1009.61 354.283C1009.61 398.229 980.604 420.201 922.596 420.201C896.131 420.201 872.4 416.783 851.404 409.947Z" fill="#407EC9"/>
<path d="M1180.12 209.264V242.662H1081.09V295.396H1175.13V330.113H1080.65V418.736H1042.57V209.264H1180.12ZM1240.91 341.246C1240.91 373.375 1253.36 389.439 1278.26 389.439C1303.16 389.439 1315.61 373.375 1315.61 341.246C1315.61 309.898 1303.16 294.225 1278.26 294.225C1253.36 294.225 1240.91 309.898 1240.91 341.246ZM1202.09 341.832C1202.09 290.27 1227.48 264.488 1278.26 264.488C1329.04 264.488 1354.43 290.27 1354.43 341.832C1354.43 393.297 1329.04 419.029 1278.26 419.029C1227.67 419.029 1202.28 393.297 1202.09 341.832ZM1383.73 418.736V264.928H1413.76L1418.59 284.557C1432.07 271.471 1446.33 264.928 1461.37 264.928V296.275C1446.91 296.275 1433.97 302.281 1422.55 314.293V418.736H1383.73ZM1483.34 418.736V264.928H1513.37L1517.91 287.193C1531.68 272.35 1548.23 264.928 1567.57 264.928C1586.9 264.928 1600.13 271.959 1607.26 286.021C1622.99 271.959 1639.44 264.928 1656.63 264.928C1691.98 264.928 1709.66 284.41 1709.66 323.375V418.736H1670.84V321.91C1670.84 304.82 1663.12 296.275 1647.69 296.275C1636.17 296.275 1625.09 301.451 1614.44 311.803V418.736H1575.62V322.35C1575.62 304.967 1568.49 296.275 1554.24 296.275C1542.91 296.275 1532.21 301.451 1522.16 311.803V418.736H1483.34Z" fill="#00519E"/>
</svg>
